HIERARCHY
ROOT Hips
{
	OFFSET 0.000000 0.000000 0.000000 
	CHANNELS 6 Xposition Yposition Zposition Yrotation Zrotation Xrotation 
	JOINT Lumbar
	{
		OFFSET 0.000000 0.000000 0.000000 
		CHANNELS 3 Zrotation Xrotation Yrotation
		JOINT Neck
		{
			OFFSET 0.000000 0.445665 0.000000 
			CHANNELS 3 Zrotation Xrotation Yrotation
			End Site
			{
				OFFSET 0.000000 0.227535 0.000000 
			}
		}
		JOINT RightShoulder
		{
			OFFSET 0.019635 0.377685 0.194865 
			CHANNELS 3 Zrotation Xrotation Yrotation
			JOINT RightElbow
			{
				OFFSET 0.000000 -0.243375 0.000000 
				CHANNELS 2 Zrotation Yrotation
				JOINT RightWrist
				{
					OFFSET 0.000000 -0.264825 0.000000 
					CHANNELS 2 Zrotation Xrotation
					End Site
					{
						OFFSET 0.006600 -0.176220 0.000990 
					}
				}
			}
		}
		JOINT LeftShoulder
		{
			OFFSET 0.019635 0.377685 -0.194865 
			CHANNELS 3 Zrotation Xrotation Yrotation
			JOINT LeftElbow
			{
				OFFSET 0.000000 -0.243375 0.000000 
				CHANNELS 2 Zrotation Yrotation
				JOINT LeftWrist
				{
					OFFSET 0.000000 -0.264825 0.000000 
					CHANNELS 2 Zrotation Xrotation
					End Site
					{
						OFFSET 0.006600 -0.176220 -0.000990 
					}
				}
			}
		}
	}
	JOINT RightHip
	{
		OFFSET 0.052140 -0.069960 0.075570 
		CHANNELS 3 Zrotation Xrotation Yrotation
		JOINT RightKnee
		{
			OFFSET 0.000000 -0.402270 0.000000 
			CHANNELS 1 Zrotation
			JOINT RightAnkle
			{
				OFFSET 0.000000 -0.404085 0.000000 
				CHANNELS 3 Zrotation Xrotation Yrotation
				End Site
				{
					OFFSET 0.204105 -0.089430 0.008415 
				}
			}
		}
	}
	JOINT LeftHip
	{
		OFFSET 0.052140 -0.069960 -0.075570 
		CHANNELS 3 Zrotation Xrotation Yrotation
		JOINT LeftKnee
		{
			OFFSET 0.000000 -0.402270 0.000000 
			CHANNELS 1 Zrotation
			JOINT LeftAnkle
			{
				OFFSET 0.000000 -0.404085 0.000000 
				CHANNELS 3 Zrotation Xrotation Yrotation
				End Site
				{
					OFFSET 0.204105 -0.089430 -0.008415 
				}
			}
		}
	}
}
MOTION
Frames: 20
Frame Time: 0.02
0 0.95578 0 175.01874 0 -4.91559 5.36553 5.67138 1.08639 -26.34024 -0.88889 1.7328 -0.47837 -67.15269 -87.14685 21.40644 68.94742 -26.67042 -1.01854 29.41454 73.44494 63.61488 17.46462 -88.54031 -23.91719 4.12539 -1.39849 6.4627 1.52714 -7.13313 -1.01563 -3.1664 -7.41215 -4.15761 4.48669 10.26931 -7.39023 7.74439 6.16398 10.17635
-0.00041 0.95578 -0.00014 175.14433 0 -4.91486 5.38049 5.64785 1.04862 -26.59367 -0.8247 1.77394 -0.82793 -67.30099 -87.14685 21.27269 68.53638 -26.78239 -0.96323 29.44177 73.27855 63.90198 17.43546 -88.80871 -23.94239 4.16527 -1.44245 6.46859 1.39837 -7.12496 -0.99621 -3.15133 -7.38428 -4.17904 4.49989 10.17995 -7.36608 7.73756 6.16151 10.15626
-0.00083 0.95577 -0.00029 175.26976 0 -4.9141 5.39535 5.62432 1.01091 -26.84628 -0.76072 1.81488 -1.17595 -67.44871 -87.14686 21.13947 68.12634 -26.89419 -0.90801 29.46799 73.11274 64.18724 17.40704 -89.07345 -23.96696 4.20459 -1.4863 6.47447 1.27006 -7.11684 -0.97683 -3.13643 -7.35681 -4.20032 4.51306 10.09078 -7.34208 7.73081 6.15901 10.1361
-0.00124 0.95577 -0.00043 175.39561 0 -4.91326 5.40999 5.60065 0.97278 -27.09762 -0.69699 1.85551 -1.52106 -67.59568 -87.14686 21.00703 67.71647 -27.00705 -0.85269 29.49048 72.94769 64.46787 17.38134 -89.32619 -23.98912 4.24203 -1.53005 6.48038 1.14261 -7.10875 -0.95754 -3.12209 -7.33073 -4.22123 4.52627 10.00202 -7.31847 7.72435 6.15639 10.11525
-0.00166 0.95577 -0.00057 175.51904 0 -4.9129 5.4258 5.57786 0.93656 -27.35516 -0.63198 1.89792 -1.88141 -67.7468 -87.14687 20.87039 67.30594 -27.11508 -0.79797 29.53278 72.7787 64.77292 17.34126 -89.64253 -24.02387 4.28941 -1.57425 6.48612 1.01092 -7.1004 -0.93796 -3.10479 -7.29739 -4.24412 4.53929 9.91172 -7.2928 7.71638 6.15444 10.09779
-0.00206 0.95576 -0.00072 175.64761 0 -4.9115 5.43916 5.55314 0.89655 -27.5997 -0.5697 1.93643 -2.2093 -67.88887 -87.14687 20.74284 66.89708 -27.23266 -0.74202 29.53314 72.61816 65.02609 17.3316 -89.82403 -24.03205 4.31575 -1.6175 6.49221 0.8881 -7.09267 -0.91888 -3.09376 -7.27935 -4.26281 4.5527 9.82435 -7.27153 7.71159 6.15107 10.07338
-0.00241 0.95575 -0.00085 175.79334 0 -4.90728 5.44567 5.52283 0.84247 -27.81092 -0.51392 1.96569 -2.4517 -68.00981 -87.14687 20.63717 66.48295 -27.38565 -0.68108 29.41351 72.47762 65.13724 17.4091 -89.62463 -23.96353 4.28217 -1.65897 6.49952 0.78912 -7.08596 -0.90158 -3.10039 -7.30543 -4.26985 4.56764 9.74645 -7.26213 7.71613 6.14345 10.02669
-0.00273 0.95574 -0.00098 175.94386 0 -4.902 5.44977 5.49059 0.7851 -28.00885 -0.46103 1.99081 -2.66052 -68.12102 -87.14687 20.54119 66.07205 -27.54679 -0.61915 29.25228 72.34601 65.19595 17.51681 -89.2906 -23.86871 4.22765 -1.69937 6.50717 0.69915 -7.07998 -0.8847 -3.11328 -7.34666 -4.27268 4.58292 9.67127 -7.25722 7.72381 6.13445 9.97346
-0.00306 0.95573 -0.00112 176.09049 0 -4.89716 5.45504 5.45937 0.73158 -28.2114 -0.40738 2.01678 -2.88267 -68.2343 -87.14687 20.44273 65.66535 -27.6985 -0.55862 29.11253 72.21234 65.27792 17.60874 -89.02323 -23.788 4.18385 -1.73978 6.51452 0.6053 -7.0741 -0.86729 -3.12309 -7.37976 -4.2775 4.59774 9.59371 -7.25043 7.72972 6.12628 9.92527
-0.0034 0.95572 -0.00125 176.24444 0 -4.89248 5.45989 5.42757 0.66837 -28.4197 -0.3513 2.04686 -3.11419 -68.35749 -87.14687 20.33608 65.23408 -27.87433 -0.49401 28.96152 72.07045 65.36209 17.70931 -88.73211 -23.6982 4.13495 -1.7822 6.52246 0.51037 -7.06644 -0.85122 -3.1339 -7.41808 -4.282 4.61379 9.52055 -7.24297 7.73703 6.11726 9.86859
-0.00372 0.95571 -0.00138 176.38415 0 -4.88724 5.46517 5.3965 0.62422 -28.61314 -0.30108 2.06772 -3.31666 -68.45772 -87.14687 20.2489 64.85566 -28.0019 -0.43777 28.82462 71.94756 65.42943 17.79908 -88.45928 -23.62107 4.09172 -1.82018 6.52927 0.42007 -7.06261 -0.83257 -3.1441 -7.44919 -4.28616 4.62741 9.43941 -7.23796 7.74223 6.10969 9.82774
-0.00402 0.95567 -0.00152 176.48444 0 -4.88054 5.47125 5.36813 0.63641 -28.76638 -0.26546 2.0615 -3.46051 -68.49708 -87.14687 20.21225 64.61445 -27.99379 -0.40378 28.73227 71.87683 65.46148 17.85128 -88.2632 -23.58531 4.06899 -1.84624 6.53266 0.33837 -7.06977 -0.80579 -3.15122 -7.45595 -4.29046 4.63393 9.33105 -7.23861 7.7403 6.10638 9.8348
-0.00431 0.95563 -0.00166 176.56997 0 -4.87335 5.47803 5.34053 0.66737 -28.90553 -0.23582 2.04665 -3.57369 -68.51357 -87.14687 20.19508 64.42795 -27.93682 -0.37841 28.65641 71.82454 65.47875 17.89155 -88.09146 -23.56315 4.05275 -1.86784 6.53496 0.26148 -7.0807 -0.7766 -3.1575 -7.45508 -4.29455 4.63806 9.21542 -7.24155 7.73624 6.1046 9.85758
-0.00459 0.95559 -0.00179 176.66162 0 -4.86647 5.48515 5.31245 0.68778 -29.05277 -0.20397 2.03749 -3.6923 -68.54058 -87.14686 20.16952 64.2214 -27.9026 -0.3499 28.57602 71.76262 65.50377 17.93757 -87.9129 -23.53482 4.03364 -1.89149 6.53788 0.18361 -7.08949 -0.74911 -3.16408 -7.45819 -4.29868 4.64349 9.10609 -7.24347 7.73351 6.10217 9.87139
-0.00489 0.95555 -0.00193 176.75616 0 -4.85915 5.48947 5.28485 0.71648 -29.19262 -0.16996 2.0207 -3.84614 -68.56708 -87.14687 20.14217 63.99401 -27.86672 -0.31829 28.48171 71.70639 65.5224 17.98353 -87.71155 -23.50572 4.01331 -1.91516 6.54024 0.10062 -7.09993 -0.71901 -3.1712 -7.45966 -4.30289 4.64799 8.98421 -7.24552 7.72937 6.09949 9.89246
-0.00517 0.95551 -0.00207 176.84079 0 -4.85269 5.49977 5.25649 0.73253 -29.34445 -0.14194 2.01783 -3.91918 -68.58891 -87.14684 20.12327 63.82378 -27.82213 -0.29493 28.42079 71.64245 65.55177 18.02604 -87.56542 -23.48159 3.99752 -1.93754 6.54355 0.02973 -7.10802 -0.69384 -3.17692 -7.46253 -4.30698 4.65388 8.88669 -7.24771 7.72759 6.09771 9.90252
-0.00539 0.95549 -0.00222 176.90448 0 -4.84818 5.52688 5.22551 0.70817 -29.53472 -0.12815 2.05534 -3.78162 -68.60714 -87.14673 20.12091 63.79067 -27.76931 -0.29452 28.44873 71.55363 65.6124 18.06482 -87.56435 -23.46975 3.99131 -1.95912 6.54933 -0.01252 -7.10699 -0.68216 -3.17891 -7.47099 -4.31043 4.66405 8.8585 -7.25053 7.73316 6.09825 9.87584
-0.00558 0.95547 -0.00238 176.95812 0 -4.84464 5.55992 5.1938 0.67065 -29.73718 -0.1203 2.10718 -3.56315 -68.62086 -87.14659 20.12664 63.81417 -27.70869 -0.30181 28.50981 71.4562 65.685 18.0998 -87.61879 -23.46218 3.98979 -1.97926 6.55616 -0.04218 -7.1037 -0.67566 -3.1795 -7.48103 -4.31383 4.67571 8.85501 -7.25328 7.74111 6.09963 9.83807
-0.00578 0.95544 -0.00254 177.01452 0 -4.841 5.58998 5.16267 0.6397 -29.93289 -0.11031 2.15263 -3.37844 -68.63421 -87.14647 20.13008 63.81702 -27.64899 -0.30397 28.55542 71.36208 65.75371 18.13455 -87.64969 -23.45164 3.98714 -1.99897 6.56277 -0.07523 -7.10262 -0.66727 -3.18075 -7.49036 -4.31757 4.68679 8.84 -7.25547 7.74773 6.10046 9.80703
-0.00599 0.95542 -0.00269 177.07816 0 -4.83592 5.6213 5.13056 0.60675 -30.1334 -0.09827 2.1974 -3.20486 -68.65679 -87.14631 20.1287 63.80191 -27.59849 -0.31289 28.60317 71.27119 65.81529 18.1774 -87.67493 -23.44615 3.98055 -2.02306 6.56828 -0.11777 -7.09694 -0.65683 -3.18189 -7.49949 -4.32013 4.69742 8.82598 -7.26008 7.7553 6.10197 9.76928
